{
    "asset" : {
        "generator" : "Khronos glTF Blender I/O v1.6.16",
        "version" : "2.0"
    },
    "scene" : 0,
    "scenes" : [
        {
            "name" : "Model",
            "nodes" : [
                0,
                1,
                2,
                3
            ]
        }
    ],
    "nodes" : [
        {
            "mesh" : 0,
            "name" : "Sphere"
        },
        {
            "name" : "Camera",
            "rotation" : [
                0.7017120122909546,
                0,
                0,
                0.7124607563018799
            ],
            "translation" : [
                0,
                2.7893199920654297,
                11.25275993347168
            ]
        },
        {
            "name" : "Area_Lamp",
            "rotation" : [
                0.5069735050201416,
                0.5164837837219238,
                -0.11530596017837524,
                0.6803873181343079
            ],
            "translation" : [
                4.020307540893555,
                5.545446872711182,
                3.4303805828094482
            ]
        },
        {
            "name" : "Blue_Lamp",
            "rotation" : [
                0.42577627301216125,
                -0.04059203341603279,
                0.5636670589447021,
                0.7066444158554077
            ],
            "translation" : [
                -6.160582542419434,
                1.5898975133895874,
                3.8762078285217285
            ]
        }
    ],
    "materials" : [
        {
            "doubleSided" : true,
            "name" : "Jellyfish",
            "pbrMetallicRoughness" : {
                "baseColorFactor" : [
                    0.7304609417915344,
                    0.22322800755500793,
                    0.4178851246833801,
                    1
                ],
                "metallicFactor" : 0,
                "roughnessFactor" : 0.8999999761581421
            }
        }
    ],
    "meshes" : [
        {
            "name" : "jelly",
            "primitives" : [
                {
                    "attributes" : {
                        "POSITION" : 0,
                        "NORMAL" : 1,
                        "TEXCOORD_0" : 2
                    },
                    "indices" : 3,
                    "material" : 0
                }
            ]
        }
    ],
    "accessors" : [
        {
            "bufferView" : 0,
            "componentType" : 5126,
            "count" : 790,
            "max" : [
                1.1533387899398804,
                3.818258285522461,
                1.1336358785629272
            ],
            "min" : [
                -1.1533390283584595,
                0.3955526053905487,
                -1.1336358785629272
            ],
            "type" : "VEC3"
        },
        {
            "bufferView" : 1,
            "componentType" : 5126,
            "count" : 790,
            "type" : "VEC3"
        },
        {
            "bufferView" : 2,
            "componentType" : 5126,
            "count" : 790,
            "type" : "VEC2"
        },
        {
            "bufferView" : 3,
            "componentType" : 5123,
            "count" : 4440,
            "type" : "SCALAR"
        }
    ],
    "bufferViews" : [
        {
            "buffer" : 0,
            "byteLength" : 9480,
            "byteOffset" : 0
        },
        {
            "buffer" : 0,
            "byteLength" : 9480,
            "byteOffset" : 9480
        },
        {
            "buffer" : 0,
            "byteLength" : 6320,
            "byteOffset" : 18960
        },
        {
            "buffer" : 0,
            "byteLength" : 8880,
            "byteOffset" : 25280
        }
    ],
    "buffers" : [
        {
            "byteLength" : 34160,
            "uri" : "data:application/octet-stream;base64,"
        }
    ]
}
