{
    "asset" : {
        "generator" : "Khronos glTF Blender I/O v1.6.16",
        "version" : "2.0"
    },
    "scene" : 0,
    "scenes" : [
        {
            "name" : "Scene",
            "nodes" : [
                0,
                1,
                2,
                3,
                4,
                5,
                6,
                7,
                8,
                9,
                10,
                11
            ]
        }
    ],
    "nodes" : [
        {
            "name" : "Camera",
            "rotation" : [
                0.5986053943634033,
                0.015329708345234394,
                -0.01145881786942482,
                0.8008154034614563
            ],
            "translation" : [
                0.44099724292755127,
                7.131076335906982,
                17.162691116333008
            ]
        },
        {
            "name" : "Lamp",
            "rotation" : [
                0.16907575726509094,
                0.7558803558349609,
                -0.27217137813568115,
                0.570947527885437
            ],
            "translation" : [
                4.076245307922363,
                5.903861999511719,
                -1.0054539442062378
            ]
        },
        {
            "name" : "Point.003",
            "rotation" : [
                0,
                0.7071067690849304,
                0,
                0.7071068286895752
            ],
            "translation" : [
                1.4814443588256836,
                46.379268646240234,
                13.154651641845703
            ]
        },
        {
            "name" : "Point.002",
            "rotation" : [
                0,
                0.7071067690849304,
                0,
                0.7071068286895752
            ],
            "translation" : [
                0,
                9.051848411560059,
                8.590265274047852
            ]
        },
        {
            "name" : "Point.001",
            "translation" : [
                -7,
                9.051848411560059,
                1.5902653932571411
            ]
        },
        {
            "name" : "Point",
            "translation" : [
                7,
                9.051848411560059,
                1.5902653932571411
            ]
        },
        {
            "mesh" : 0,
            "name" : "Sphere.002",
            "rotation" : [
                0.6534016132354736,
                0.014600426889955997,
                -0.016908245161175728,
                0.7566817402839661
            ],
            "scale" : [
                0.16300003230571747,
                0.024647178128361702,
                0.16300003230571747
            ],
            "translation" : [
                0.13457776606082916,
                4.570245742797852,
                1.413975715637207
            ]
        },
        {
            "mesh" : 1,
            "name" : "Sphere",
            "rotation" : [
                0.646960437297821,
                0,
                0,
                0.7625235915184021
            ],
            "scale" : [
                0.6446462273597717,
                0.47751572728157043,
                0.7162736058235168
            ],
            "translation" : [
                0,
                4.5103535652160645,
                0.9064314365386963
            ]
        },
        {
            "mesh" : 2,
            "name" : "Circle",
            "scale" : [
                0.19999998807907104,
                0.2026793658733368,
                0.19999998807907104
            ],
            "translation" : [
                -0.012667421251535416,
                3.2611985206604004,
                0
            ]
        },
        {
            "mesh" : 3,
            "name" : "Circle.002",
            "rotation" : [
                -0.8504382967948914,
                -0.526075005531311,
                0,
                -4.626465965884563e-08
            ],
            "scale" : [
                0.14074823260307312,
                0.14074823260307312,
                0.14074823260307312
            ],
            "translation" : [
                1.505650281906128,
                3.0984606742858887,
                0
            ]
        },
        {
            "mesh" : 4,
            "name" : "Sphere.001",
            "rotation" : [
                0.2211688905954361,
                0.05157168209552765,
                -0.011712923645973206,
                0.973800539970398
            ],
            "scale" : [
                0.8892000913619995,
                0.7800000309944153,
                -1.2480000257492065
            ],
            "translation" : [
                -0.08882759511470795,
                1.140260934829712,
                0
            ]
        },
        {
            "mesh" : 5,
            "name" : "Plane.001",
            "rotation" : [
                0.7071068286895752,
                0,
                0,
                0.7071068286895752
            ],
            "scale" : [
                0.612853467464447,
                0.5600000023841858,
                0.27775999903678894
            ],
            "translation" : [
                0,
                3.679891347885132,
                0.9160523414611816
            ]
        }
    ],
    "materials" : [
        {
            "doubleSided" : true,
            "name" : "pupila",
            "pbrMetallicRoughness" : {
                "baseColorFactor" : [
                    0,
                    0,
                    0,
                    1
                ],
                "metallicFactor" : 0,
                "roughnessFactor" : 0.5
            }
        },
        {
            "doubleSided" : true,
            "name" : "ojos",
            "pbrMetallicRoughness" : {
                "baseColorFactor" : [
                    1,
                    1,
                    1,
                    1
                ],
                "metallicFactor" : 0,
                "roughnessFactor" : 0.5
            }
        },
        {
            "doubleSided" : true,
            "name" : "cuerpo 1",
            "pbrMetallicRoughness" : {
                "baseColorFactor" : [
                    0.800000011920929,
                    0.800000011920929,
                    0.800000011920929,
                    1
                ],
                "metallicFactor" : 0,
                "roughnessFactor" : 0.5
            }
        },
        {
            "doubleSided" : true,
            "name" : "cuerpo 2",
            "pbrMetallicRoughness" : {
                "baseColorFactor" : [
                    0,
                    0,
                    0,
                    1
                ],
                "metallicFactor" : 0,
                "roughnessFactor" : 0.5
            }
        },
        {
            "doubleSided" : true,
            "name" : "alas",
            "pbrMetallicRoughness" : {
                "baseColorFactor" : [
                    0,
                    0,
                    0,
                    1
                ],
                "metallicFactor" : 0,
                "roughnessFactor" : 0.5
            }
        },
        {
            "doubleSided" : true,
            "name" : "patas",
            "pbrMetallicRoughness" : {
                "baseColorFactor" : [
                    0.517332911491394,
                    0.4450858235359192,
                    0,
                    1
                ],
                "metallicFactor" : 0,
                "roughnessFactor" : 0.5
            }
        },
        {
            "doubleSided" : true,
            "name" : "Material",
            "pbrMetallicRoughness" : {
                "baseColorFactor" : [
                    0.8000000715255737,
                    0.24179288744926453,
                    0,
                    1
                ],
                "metallicFactor" : 0,
                "roughnessFactor" : 0.5
            }
        }
    ],
    "meshes" : [
        {
            "name" : "Sphere.004",
            "primitives" : [
                {
                    "attributes" : {
                        "POSITION" : 0,
                        "NORMAL" : 1
                    },
                    "indices" : 2,
                    "material" : 0
                }
            ]
        },
        {
            "name" : "Sphere",
            "primitives" : [
                {
                    "attributes" : {
                        "POSITION" : 3,
                        "NORMAL" : 4
                    },
                    "indices" : 5,
                    "material" : 1
                }
            ]
        },
        {
            "name" : "Circle",
            "primitives" : [
                {
                    "attributes" : {
                        "POSITION" : 6,
                        "NORMAL" : 7,
                        "TEXCOORD_0" : 8
                    },
                    "indices" : 9,
                    "material" : 2
                },
                {
                    "attributes" : {
                        "POSITION" : 10,
                        "NORMAL" : 11,
                        "TEXCOORD_0" : 12
                    },
                    "indices" : 13,
                    "material" : 3
                }
            ]
        },
        {
            "name" : "Circle.003",
            "primitives" : [
                {
                    "attributes" : {
                        "POSITION" : 14,
                        "NORMAL" : 15
                    },
                    "indices" : 16,
                    "material" : 4
                }
            ]
        },
        {
            "name" : "Sphere.001",
            "primitives" : [
                {
                    "attributes" : {
                        "POSITION" : 17,
                        "NORMAL" : 18
                    },
                    "indices" : 19,
                    "material" : 5
                }
            ]
        },
        {
            "name" : "Plane.001",
            "primitives" : [
                {
                    "attributes" : {
                        "POSITION" : 20,
                        "NORMAL" : 21
                    },
                    "indices" : 22,
                    "material" : 6
                }
            ]
        }
    ],
    "accessors" : [
        {
            "bufferView" : 0,
            "componentType" : 5126,
            "count" : 964,
            "max" : [
                3.5552237033843994,
                1.0000076293945312,
                1.0000022649765015
            ],
            "min" : [
                -4.579743385314941,
                -1,
                -0.9999991655349731
            ],
            "type" : "VEC3"
        },
        {
            "bufferView" : 1,
            "componentType" : 5126,
            "count" : 964,
            "type" : "VEC3"
        },
        {
            "bufferView" : 2,
            "componentType" : 5123,
            "count" : 5760,
            "type" : "SCALAR"
        },
        {
            "bufferView" : 3,
            "componentType" : 5126,
            "count" : 516,
            "max" : [
                1.5657168626785278,
                1.1171553134918213,
                0.8171741962432861
            ],
            "min" : [
                -1.5150642395019531,
                -0.36072951555252075,
                -0.7907988429069519
            ],
            "type" : "VEC3"
        },
        {
            "bufferView" : 4,
            "componentType" : 5126,
            "count" : 516,
            "type" : "VEC3"
        },
        {
            "bufferView" : 5,
            "componentType" : 5123,
            "count" : 3072,
            "type" : "SCALAR"
        },
        {
            "bufferView" : 6,
            "componentType" : 5126,
            "count" : 285,
            "max" : [
                7.958191871643066,
                2.3413639068603516,
                8.256059646606445
            ],
            "min" : [
                -7.983060359954834,
                -9.981730461120605,
                -1.293713927268982
            ],
            "type" : "VEC3"
        },
        {
            "bufferView" : 7,
            "componentType" : 5126,
            "count" : 285,
            "type" : "VEC3"
        },
        {
            "bufferView" : 8,
            "componentType" : 5126,
            "count" : 285,
            "type" : "VEC2"
        },
        {
            "bufferView" : 9,
            "componentType" : 5123,
            "count" : 1404,
            "type" : "SCALAR"
        },
        {
            "bufferView" : 10,
            "componentType" : 5126,
            "count" : 787,
            "max" : [
                8.370418548583984,
                11.841364860534668,
                7.2400617599487305
            ],
            "min" : [
                -8.14169692993164,
                -9.981730461120605,
                -8.256053924560547
            ],
            "type" : "VEC3"
        },
        {
            "bufferView" : 11,
            "componentType" : 5126,
            "count" : 787,
            "type" : "VEC3"
        },
        {
            "bufferView" : 12,
            "componentType" : 5126,
            "count" : 787,
            "type" : "VEC2"
        },
        {
            "bufferView" : 13,
            "componentType" : 5123,
            "count" : 4152,
            "type" : "SCALAR"
        },
        {
            "bufferView" : 14,
            "componentType" : 5126,
            "count" : 2112,
            "max" : [
                3.988407850265503,
                7.655749797821045,
                1.743737816810608
            ],
            "min" : [
                -13.532986640930176,
                -28.001676559448242,
                -1.7437372207641602
            ],
            "type" : "VEC3"
        },
        {
            "bufferView" : 15,
            "componentType" : 5126,
            "count" : 2112,
            "type" : "VEC3"
        },
        {
            "bufferView" : 16,
            "componentType" : 5123,
            "count" : 3252,
            "type" : "SCALAR"
        },
        {
            "bufferView" : 17,
            "componentType" : 5126,
            "count" : 516,
            "max" : [
                2.0512490272521973,
                1,
                0.9266428351402283
            ],
            "min" : [
                -1.9837726354599,
                7.549790126404332e-08,
                -0.9266417622566223
            ],
            "type" : "VEC3"
        },
        {
            "bufferView" : 18,
            "componentType" : 5126,
            "count" : 516,
            "type" : "VEC3"
        },
        {
            "bufferView" : 19,
            "componentType" : 5123,
            "count" : 3072,
            "type" : "SCALAR"
        },
        {
            "bufferView" : 20,
            "componentType" : 5126,
            "count" : 3083,
            "max" : [
                1.080019235610962,
                1.9912866353988647,
                1.273041844367981
            ],
            "min" : [
                -1.0799959897994995,
                0.008124499581754208,
                -1.7852704524993896
            ],
            "type" : "VEC3"
        },
        {
            "bufferView" : 21,
            "componentType" : 5126,
            "count" : 3083,
            "type" : "VEC3"
        },
        {
            "bufferView" : 22,
            "componentType" : 5123,
            "count" : 18624,
            "type" : "SCALAR"
        }
    ],
    "bufferViews" : [
        {
            "buffer" : 0,
            "byteLength" : 11568,
            "byteOffset" : 0
        },
        {
            "buffer" : 0,
            "byteLength" : 11568,
            "byteOffset" : 11568
        },
        {
            "buffer" : 0,
            "byteLength" : 11520,
            "byteOffset" : 23136
        },
        {
            "buffer" : 0,
            "byteLength" : 6192,
            "byteOffset" : 34656
        },
        {
            "buffer" : 0,
            "byteLength" : 6192,
            "byteOffset" : 40848
        },
        {
            "buffer" : 0,
            "byteLength" : 6144,
            "byteOffset" : 47040
        },
        {
            "buffer" : 0,
            "byteLength" : 3420,
            "byteOffset" : 53184
        },
        {
            "buffer" : 0,
            "byteLength" : 3420,
            "byteOffset" : 56604
        },
        {
            "buffer" : 0,
            "byteLength" : 2280,
            "byteOffset" : 60024
        },
        {
            "buffer" : 0,
            "byteLength" : 2808,
            "byteOffset" : 62304
        },
        {
            "buffer" : 0,
            "byteLength" : 9444,
            "byteOffset" : 65112
        },
        {
            "buffer" : 0,
            "byteLength" : 9444,
            "byteOffset" : 74556
        },
        {
            "buffer" : 0,
            "byteLength" : 6296,
            "byteOffset" : 84000
        },
        {
            "buffer" : 0,
            "byteLength" : 8304,
            "byteOffset" : 90296
        },
        {
            "buffer" : 0,
            "byteLength" : 25344,
            "byteOffset" : 98600
        },
        {
            "buffer" : 0,
            "byteLength" : 25344,
            "byteOffset" : 123944
        },
        {
            "buffer" : 0,
            "byteLength" : 6504,
            "byteOffset" : 149288
        },
        {
            "buffer" : 0,
            "byteLength" : 6192,
            "byteOffset" : 155792
        },
        {
            "buffer" : 0,
            "byteLength" : 6192,
            "byteOffset" : 161984
        },
        {
            "buffer" : 0,
            "byteLength" : 6144,
            "byteOffset" : 168176
        },
        {
            "buffer" : 0,
            "byteLength" : 36996,
            "byteOffset" : 174320
        },
        {
            "buffer" : 0,
            "byteLength" : 36996,
            "byteOffset" : 211316
        },
        {
            "buffer" : 0,
            "byteLength" : 37248,
            "byteOffset" : 248312
        }
    ],
    "buffers" : [
        {
            "byteLength" : 285560,
            "uri" : "data:application/octet-stream;base64,"
        }
    ]
}
