{
    "asset" : {
        "generator" : "Khronos glTF Blender I/O v1.6.16",
        "version" : "2.0"
    },
    "scene" : 0,
    "scenes" : [
        {
            "name" : "Scene",
            "nodes" : [
                0,
                1,
                2,
                3
            ]
        }
    ],
    "nodes" : [
        {
            "name" : "Light",
            "rotation" : [
                0.16907575726509094,
                0.7558803558349609,
                -0.27217137813568115,
                0.570947527885437
            ],
            "translation" : [
                -0.26532483100891113,
                0.20277416706085205,
                -0.4356943368911743
            ]
        },
        {
            "name" : "Camera",
            "rotation" : [
                0.30318042635917664,
                0.6927039623260498,
                -0.4152340292930603,
                0.5057900547981262
            ],
            "translation" : [
                0.27807357907295227,
                0.18791566789150238,
                -0.08964323252439499
            ]
        },
        {
            "mesh" : 0,
            "name" : "Cylinder"
        },
        {
            "mesh" : 1,
            "name" : "Icosphere",
            "scale" : [
                0.9811064004898071,
                0.9811064004898071,
                0.9811064004898071
            ],
            "translation" : [
                0,
                0.04770312458276749,
                0
            ]
        }
    ],
    "materials" : [
        {
            "doubleSided" : true,
            "name" : "Metalic Paint",
            "pbrMetallicRoughness" : {}
        },
        {
            "doubleSided" : true,
            "name" : "Metallic Paint Clean",
            "pbrMetallicRoughness" : {}
        }
    ],
    "meshes" : [
        {
            "name" : "Cylinder",
            "primitives" : [
                {
                    "attributes" : {
                        "POSITION" : 0,
                        "NORMAL" : 1,
                        "TEXCOORD_0" : 2
                    },
                    "indices" : 3,
                    "material" : 0
                }
            ]
        },
        {
            "name" : "Icosphere",
            "primitives" : [
                {
                    "attributes" : {
                        "POSITION" : 4,
                        "NORMAL" : 5,
                        "TEXCOORD_0" : 6
                    },
                    "indices" : 7,
                    "material" : 1
                }
            ]
        }
    ],
    "accessors" : [
        {
            "bufferView" : 0,
            "componentType" : 5126,
            "count" : 514,
            "max" : [
                0.01100000087171793,
                0.04771368205547333,
                0.01100000087171793
            ],
            "min" : [
                -0.01100000087171793,
                0,
                -0.01100000087171793
            ],
            "type" : "VEC3"
        },
        {
            "bufferView" : 1,
            "componentType" : 5126,
            "count" : 514,
            "type" : "VEC3"
        },
        {
            "bufferView" : 2,
            "componentType" : 5126,
            "count" : 514,
            "type" : "VEC2"
        },
        {
            "bufferView" : 3,
            "componentType" : 5123,
            "count" : 852,
            "type" : "SCALAR"
        },
        {
            "bufferView" : 4,
            "componentType" : 5126,
            "count" : 120,
            "max" : [
                0.010461637750267982,
                0.01411341316998005,
                0.010999999940395355
            ],
            "min" : [
                -0.010461637750267982,
                0,
                -0.010999999940395355
            ],
            "type" : "VEC3"
        },
        {
            "bufferView" : 5,
            "componentType" : 5126,
            "count" : 120,
            "type" : "VEC3"
        },
        {
            "bufferView" : 6,
            "componentType" : 5126,
            "count" : 120,
            "type" : "VEC2"
        },
        {
            "bufferView" : 7,
            "componentType" : 5123,
            "count" : 120,
            "type" : "SCALAR"
        }
    ],
    "bufferViews" : [
        {
            "buffer" : 0,
            "byteLength" : 6168,
            "byteOffset" : 0
        },
        {
            "buffer" : 0,
            "byteLength" : 6168,
            "byteOffset" : 6168
        },
        {
            "buffer" : 0,
            "byteLength" : 4112,
            "byteOffset" : 12336
        },
        {
            "buffer" : 0,
            "byteLength" : 1704,
            "byteOffset" : 16448
        },
        {
            "buffer" : 0,
            "byteLength" : 1440,
            "byteOffset" : 18152
        },
        {
            "buffer" : 0,
            "byteLength" : 1440,
            "byteOffset" : 19592
        },
        {
            "buffer" : 0,
            "byteLength" : 960,
            "byteOffset" : 21032
        },
        {
            "buffer" : 0,
            "byteLength" : 240,
            "byteOffset" : 21992
        }
    ],
    "buffers" : [
        {
            "byteLength" : 22232,
            "uri" : "data:application/octet-stream;base64,"
        }
    ]
}
