{
    "asset" : {
        "generator" : "Khronos glTF Blender I/O v1.6.16",
        "version" : "2.0"
    },
    "scene" : 0,
    "scenes" : [
        {
            "name" : "Scene",
            "nodes" : [
                0,
                1,
                2
            ]
        }
    ],
    "nodes" : [
        {
            "mesh" : 0,
            "name" : "Seaurchin",
            "translation" : [
                0.0015445693861693144,
                0.048726845532655716,
                0.00019843908376060426
            ]
        },
        {
            "name" : "Sun",
            "rotation" : [
                0,
                0,
                -0.30030614137649536,
                0.9538428783416748
            ],
            "translation" : [
                1.6360363960266113,
                1.0652120113372803,
                0
            ]
        },
        {
            "name" : "Camera",
            "rotation" : [
                0.4686620533466339,
                0.4350660741329193,
                -0.28566423058509827,
                0.7137712240219116
            ],
            "scale" : [
                0.10364729166030884,
                0.10364729911088943,
                0.10364729166030884
            ],
            "translation" : [
                0.2497532218694687,
                0.16698957979679108,
                0.12675733864307404
            ]
        }
    ],
    "materials" : [
        {
            "doubleSided" : true,
            "name" : "SeaurchinSpikes",
            "pbrMetallicRoughness" : {
                "baseColorFactor" : [
                    0.06071632727980614,
                    0.06071632727980614,
                    0.06071632727980614,
                    1
                ],
                "metallicFactor" : 0,
                "roughnessFactor" : 0.5
            }
        },
        {
            "doubleSided" : true,
            "name" : "SeaurchinBody",
            "pbrMetallicRoughness" : {
                "baseColorFactor" : [
                    0.027209652587771416,
                    0.027209652587771416,
                    0.027209652587771416,
                    1
                ],
                "metallicFactor" : 0,
                "roughnessFactor" : 0.5
            }
        }
    ],
    "meshes" : [
        {
            "name" : "Seaurchin",
            "primitives" : [
                {
                    "attributes" : {
                        "POSITION" : 0,
                        "NORMAL" : 1
                    },
                    "indices" : 2,
                    "material" : 0
                },
                {
                    "attributes" : {
                        "POSITION" : 3,
                        "NORMAL" : 4
                    },
                    "indices" : 5,
                    "material" : 1
                }
            ]
        }
    ],
    "accessors" : [
        {
            "bufferView" : 0,
            "componentType" : 5126,
            "count" : 45408,
            "max" : [
                0.053898293524980545,
                0.049395155161619186,
                0.056240513920784
            ],
            "min" : [
                -0.053592681884765625,
                -0.049254488199949265,
                -0.05631155148148537
            ],
            "type" : "VEC3"
        },
        {
            "bufferView" : 1,
            "componentType" : 5126,
            "count" : 45408,
            "type" : "VEC3"
        },
        {
            "bufferView" : 2,
            "componentType" : 5123,
            "count" : 68112,
            "type" : "SCALAR"
        },
        {
            "bufferView" : 3,
            "componentType" : 5126,
            "count" : 384,
            "max" : [
                0.03474463149905205,
                0.03041066788136959,
                0.03767528012394905
            ],
            "min" : [
                -0.035661131143569946,
                -0.03038535639643669,
                -0.03778582811355591
            ],
            "type" : "VEC3"
        },
        {
            "bufferView" : 4,
            "componentType" : 5126,
            "count" : 384,
            "type" : "VEC3"
        },
        {
            "bufferView" : 5,
            "componentType" : 5123,
            "count" : 576,
            "type" : "SCALAR"
        }
    ],
    "bufferViews" : [
        {
            "buffer" : 0,
            "byteLength" : 544896,
            "byteOffset" : 0
        },
        {
            "buffer" : 0,
            "byteLength" : 544896,
            "byteOffset" : 544896
        },
        {
            "buffer" : 0,
            "byteLength" : 136224,
            "byteOffset" : 1089792
        },
        {
            "buffer" : 0,
            "byteLength" : 4608,
            "byteOffset" : 1226016
        },
        {
            "buffer" : 0,
            "byteLength" : 4608,
            "byteOffset" : 1230624
        },
        {
            "buffer" : 0,
            "byteLength" : 1152,
            "byteOffset" : 1235232
        }
    ],
    "buffers" : [
        {
            "byteLength" : 1236384,
            "uri" : "data:application/octet-stream;base64,"
        }
    ]
}
